<?xml version="1.0" encoding="UTF-8"?>
<svg id="Layer_1" data-name="Layer 1" xmlns="http://www.w3.org/2000/svg" viewBox="0 0 1000 1000">
  <defs>
    <style>
      .cls-1 {
        fill: #55c4c8;
      }

      .cls-2 {
        fill: #1a2530;
      }
    </style>
  </defs>
  <rect class="cls-1" width="1000" height="1000"/>
  <g>
    <g>
      <path class="cls-2" d="m401.36,485.26l-6.51,1.45c-.95.21-1.62,1.05-1.62,2.02v110.16c0,1.32,1.21,2.3,2.5,2.02l6.51-1.38c.96-.2,1.64-1.05,1.64-2.02v-30c0-.96.66-1.8,1.6-2.02l14.86-3.46c1.3-.3,2.54.68,2.54,2.02v34.85c0,1.32,1.21,2.3,2.5,2.02l6.51-1.39c.95-.2,1.64-1.05,1.64-2.02l.16-110.24c0-1.32-1.22-2.31-2.52-2.02l-6.67,1.48c-.95.21-1.62,1.05-1.62,2.02v62.01c0,.98-.69,1.83-1.65,2.03l-14.86,3.05c-1.28.26-2.49-.72-2.49-2.03v-66.53c0-1.32-1.23-2.31-2.52-2.02Z"/>
      <path class="cls-2" d="m482.38,546.9l13.76-1.68c1.04-.13,1.82-1.01,1.82-2.05v-4.94c0-1.33-1.23-2.31-2.52-2.02l-12.35,2.77c-1.29.29-2.52-.69-2.52-2.02v-38.41c0-1.04.77-1.91,1.8-2.05l13.8-1.83c1.03-.14,1.8-1.01,1.8-2.05v-5.69c0-1.28-1.15-2.25-2.41-2.04l-23.9,3.98c-1,.17-1.73,1.03-1.73,2.04v108.29c0,1.27,1.14,2.25,2.4,2.04l23.9-3.86c1-.16,1.74-1.03,1.74-2.04v-6.35c0-1.33-1.23-2.31-2.52-2.02l-12.35,2.77c-1.29.29-2.52-.69-2.52-2.02v-38.77c0-1.05.78-1.93,1.82-2.05Z"/>
      <path class="cls-2" d="m543.87,484.78l-6.51.97c-1.01.15-1.76,1.02-1.76,2.05v111.44c0,1.27,1.13,2.24,2.39,2.04l23.9-3.73c1.01-.16,1.75-1.02,1.75-2.04v-6.39c0-1.32-1.21-2.3-2.5-2.02l-12.39,2.65c-1.29.28-2.5-.71-2.5-2.02v-100.89c0-1.26-1.12-2.23-2.37-2.05Z"/>
      <path class="cls-2" d="m631.42,485.1c-11.23-2.94-20.43.26-24.91,2.44-3.54,1.77-6.72,4.09-8.41,5.54-.46.4-.73.97-.72,1.58l.49,104.29c0,1.31,1.21,2.28,2.49,2.02l6.21-1.28c.96-.2,1.64-1.04,1.65-2.01l.15-19.67c0-.63.2-1.24.57-1.74h0c16.31-22.57,27.35-44.98,31.09-63.1,1.47-7.41,3.57-25.01-8.6-28.06Zm-2.68,30.39c-1.56,8.24-5.93,18.37-8.41,23.69-2.16,4.49-4.5,9-6.77,13.36l-1.82,3.5c-1,1.92-3.9,1.21-3.9-.95v-3.88c-.01-7.87-.01-15.31.17-22.09,0-2.85.06-11.8.12-18.78.03-4.44.06-8.07.06-8.83v-.39c0-.55.22-1.08.61-1.46l.28-.28c1.2-1.2,6.56-4.14,12.02-3.9,3.78.27,6.52,2.13,7.82,5.23,1.11,2.89,1.05,7.29-.16,14.78Z"/>
      <path class="cls-2" d="m684.57,546.9l13.76-1.68c1.04-.13,1.82-1.01,1.82-2.05v-4.94c0-1.33-1.23-2.31-2.52-2.02l-12.35,2.77c-1.29.29-2.52-.69-2.52-2.02v-38.41c0-1.04.77-1.91,1.8-2.05l13.8-1.83c1.03-.14,1.8-1.01,1.8-2.05v-5.69c0-1.28-1.15-2.25-2.41-2.04l-23.9,3.98c-1,.17-1.73,1.03-1.73,2.04v108.29c0,1.27,1.14,2.25,2.4,2.04l23.9-3.86c1-.16,1.74-1.03,1.74-2.04v-6.35c0-1.33-1.23-2.31-2.52-2.02l-12.35,2.77c-1.29.29-2.52-.69-2.52-2.02v-38.77c0-1.05.78-1.93,1.82-2.05Z"/>
      <path class="cls-2" d="m758.85,560.83c-.47-.72-.44-1.66.07-2.35l.39-.53c13.75-18.76,21.96-39.2,21.96-54.66,0-6.84-1.68-11.93-4.98-15.11-3.16-3.05-7.99-4.49-14.25-4.24-9.48.3-20.55,6.07-24.06,9.08-.46.39-.72.97-.71,1.57l.5,104.35c0,1.31,1.21,2.28,2.49,2.02l6.21-1.28c.96-.2,1.64-1.04,1.65-2.01l.15-22.58c0-.36.1-.7.27-1.01l1.66-2.9c.8-1.39,2.8-1.39,3.59,0l15.98,28.09c.55.96,1.76,1.32,2.75.82l6.82-3.52c1.09-.56,1.45-1.94.79-2.96l-21.26-32.76Zm-7.33-9.18c-1.12,1.73-3.81.94-3.81-1.13v-3.22c0-7.14,0-13.89.18-20.14.18-5.29.18-10.41.18-15.36v-10.71c0-.58.24-1.13.66-1.52l.31-.28c2.82-2.6,7.28-4.35,11.1-4.35,5.47.28,8.89,3.67,9.56,9.32,0,.07.01.15.02.22.53,12.73-10.44,35.19-16.45,44.47l-1.75,2.7Z"/>
      <path class="cls-2" d="m399.46,460.49c2.77.21,5.06-.33,7.23-1.74,4.12-2.62,6.48-7.88,6.48-14.45,0-4.4-.83-7.3-2.86-10.01-1.71-2.11-4.14-3.67-6.49-5.18-2.71-1.74-5.51-3.54-7.34-6.25-1.48-1.99-2.3-4.66-2.3-7.54,0-5.32,2.01-8.25,5.67-8.25,5.16,0,6.37,7.14,6.65,10.81.04.51.51.87,1.02.77l4.32-.86c.39-.08.68-.42.69-.81.08-5.14-1.69-10.35-4.67-13.58-2.19-2.37-4.96-3.62-8.01-3.62-4.3,0-7.39,1.56-9.45,4.78-2.05,2.95-3.07,6.99-3.07,12.02,0,3.87,1.02,7.15,3.13,10.02,1.77,2.47,4,4.48,7.45,6.75,2.25,1.35,4.82,2.99,6.62,5.26,1.36,1.73,2.06,4.13,2.06,7.13-.05,2.19-.5,3.96-1.34,5.25-1.03,1.6-2.65,2.42-4.62,2.38-5.09-.18-6.37-7.54-6.7-11.17-.05-.51-.52-.86-1.02-.76l-4.96,1.01c-.41.08-.71.45-.69.87.4,8.09,4.26,16.54,12.2,17.17Z"/>
      <path class="cls-2" d="m770.11,460.49c2.77.21,5.06-.33,7.23-1.74,4.12-2.62,6.48-7.88,6.48-14.45,0-4.4-.83-7.3-2.86-10.01-1.71-2.11-4.14-3.67-6.49-5.18-2.71-1.74-5.51-3.54-7.34-6.25-1.48-1.99-2.3-4.66-2.3-7.54,0-5.32,2.01-8.25,5.67-8.25,5.16,0,6.37,7.14,6.65,10.81.04.51.51.87,1.02.77l4.32-.86c.39-.08.68-.42.69-.81.08-5.14-1.69-10.35-4.67-13.58-2.19-2.37-4.96-3.62-8.01-3.62-4.3,0-7.39,1.56-9.45,4.78-2.05,2.95-3.07,6.99-3.07,12.02,0,3.87,1.02,7.15,3.13,10.02,1.77,2.47,4,4.48,7.45,6.75,2.25,1.35,4.82,2.99,6.62,5.26,1.36,1.73,2.06,4.13,2.06,7.13-.05,2.19-.5,3.96-1.34,5.25-1.03,1.6-2.65,2.42-4.62,2.38-5.09-.18-6.37-7.54-6.7-11.17-.05-.51-.52-.86-1.02-.76l-4.96,1.01c-.41.08-.71.45-.69.87.4,8.09,4.26,16.54,12.2,17.17Z"/>
      <path class="cls-2" d="m454.32,432.67l7.24-.89c.43-.05.75-.42.75-.85v-4.3c0-.55-.51-.95-1.04-.83l-6.66,1.5c-.53.12-1.04-.29-1.04-.83v-18.28c0-.43.32-.79.74-.85l7.26-.96c.42-.06.74-.42.74-.85v-4.6c0-.53-.47-.93-.99-.84l-13.71,2.28c-.41.07-.71.42-.71.84v56.12c0,.53.47.93.99.84l13.71-2.21c.41-.07.72-.42.72-.84v-4.98c0-.55-.51-.95-1.04-.83l-6.66,1.5c-.53.12-1.04-.29-1.04-.83v-18.46c0-.43.32-.79.75-.85Z"/>
      <path class="cls-2" d="m520.41,457.17c.45-.23.6-.8.32-1.22l-11.33-17.46.35-.47c6.99-9.54,11.16-19.95,11.16-27.85,0-3.63-.91-6.34-2.7-8.07-1.73-1.66-4.3-2.47-7.65-2.31-5.08.16-11.28,3.41-12.86,5.08-.15.16-.23.37-.23.59l.26,53.82c0,.54.5.94,1.03.83l4.81-.99c.39-.08.68-.43.68-.83l.08-11.91c0-.15.04-.29.11-.42l.36-.62c.33-.57,1.16-.57,1.48,0l8.02,14.09c.23.4.73.55,1.13.34l4.98-2.57Zm-14.79-24.43c-.46.71-1.57.39-1.57-.46h0c0-3.58,0-6.97.09-10.1.09-2.67.09-5.24.09-7.74v-5.55l.27-.25c1.3-1.2,3.36-2.01,5.13-2.01,2.41.12,3.86,1.59,4.15,4.15.29,6.19-5.17,17.35-8.16,21.96h0Z"/>
      <path class="cls-2" d="m574.16,429.17l1.51-8.01c1.15-6.13,2.4-12.74,3.78-19.84.12-.6-.42-1.14-1.02-1l-5.06,1.14c-.34.08-.6.35-.66.7l-6.95,43.45c-.07.41-.42.72-.84.72h-.36c-.42,0-.79-.31-.84-.73l-6.34-44.69c-.07-.5-.55-.83-1.04-.71l-4.85,1.16c-.43.1-.71.52-.64.96l9.1,57.15c.08.48.53.8,1.01.7l7.09-1.4c.34-.07.61-.33.67-.68.13-.66.29-1.55.44-2.42.31-1.71.69-3.79,1.07-5.72,1.07-5.61,2.49-13.19,3.92-20.77Z"/>
      <path class="cls-2" d="m611.93,460.09l4.97-1c.4-.08.68-.43.68-.84v-43.22c0-.53-.48-.93-1-.84l-4.97.85c-.41.07-.71.43-.71.84v43.38c0,.54.49.94,1.02.84Z"/>
      <path class="cls-2" d="m613.98,398.7c-3.76,0-6.19,1.98-6.19,5.04s2.43,5.03,6.19,5.03,6.19-1.97,6.19-5.03-2.43-5.04-6.19-5.04Z"/>
      <path class="cls-2" d="m675.46,423.65c.4-.1.68-.47.66-.88-.64-11.38-3.96-23.01-11.48-23.01-4.07,0-7.29,2.36-9.58,7.01-2.61,5.13-3.92,13.04-3.92,23.52,0,9.43,1,16.8,2.97,21.9,2.04,5.5,4.92,8.28,8.57,8.28,6.02,0,10.36-6.06,12.34-17.13.1-.57-.39-1.07-.97-.99l-5.56.82c-.37.05-.66.34-.72.71-.42,2.48-.9,4.59-1.44,6.28-.73,2.41-1.76,3.63-3.04,3.63-4.8,0-5.05-17.72-5.05-21.27,0-6,.49-12.2,1.35-17,1.09-6.28,2.48-9.09,4.5-9.09,3.91,0,4.68,12.58,4.83,17.72.02.54.52.93,1.05.8l5.47-1.31Z"/>
      <path class="cls-2" d="m716,432.67l7.24-.89c.43-.05.75-.42.75-.85v-4.3c0-.55-.51-.95-1.04-.83l-6.66,1.5c-.53.12-1.04-.29-1.04-.83v-18.28c0-.43.32-.79.74-.85l7.26-.96c.42-.06.74-.42.74-.85v-4.6c0-.53-.47-.93-.99-.84l-13.71,2.28c-.41.07-.71.42-.71.84v56.12c0,.53.47.93.99.84l13.71-2.21c.41-.07.72-.42.72-.84v-4.98c0-.55-.51-.95-1.04-.83l-6.66,1.5c-.53.12-1.04-.29-1.04-.83v-18.46c0-.43.32-.79.75-.85Z"/>
    </g>
    <g>
      <path class="cls-2" d="m311.42,406.74c.85.13,1.63-.03,2.31-.17l.37-.07c2.4-.45,5-.01,7.14,1.18,2.13,1.19,3.88,3.18,4.79,5.45.06.14.11.29.17.43.25.66.54,1.42,1.07,2.09.61.78,1.63,1.43,2.74,1.43.31,0,.62-.05.93-.16,1.18-.41,2-1.61,2.06-2.99.04-1.01-.3-1.92-.64-2.67,0,0-.03-.07-.03-.07-1.72-3.77-4.46-6.9-7.72-8.84-3.62-2.15-7.89-2.82-11.71-1.85-1.52.38-2.62,1.02-3.37,1.93-.64.79-.83,1.72-.5,2.56.35.92,1.25,1.57,2.4,1.74Z"/>
      <path class="cls-2" d="m298.61,419.76c1.13.23,2.18-.05,3.09-.29.15-.04.3-.08.45-.11,2.77-.67,5.82-.37,8.58.85,2.65,1.17,4.97,3.14,6.73,5.69,1,1.45,1.6,2.79,1.86,4.11.03.16.06.32.08.48.08.5.17,1.06.39,1.63.43,1.12,1.25,1.9,2.25,2.16.24.06.47.09.7.09,1.41,0,2.61-1.07,3.05-2.3.45-1.25.21-2.53-.05-3.51-.96-3.62-3.08-7.04-6.12-9.87-2.74-2.55-6.01-4.38-9.46-5.28-1.88-.5-3.77-.7-5.63-.62-2.09.1-4.11.55-5.98,1.03-2.16.55-2.64,1.82-2.66,2.78-.04,1.7,1.37,2.9,2.72,3.16Z"/>
      <path class="cls-2" d="m316.36,575.28c-12.56-4.86-24.89-7.34-36.66-7.38-2.17,0-4.32.08-6.39.26-1.37.12-2.75.28-4.09.43-2.94.34-5.98.69-8.94.58-3.74-.14-8.11-.92-12.3-2.18-4.89-1.47-8.64-3.5-11.47-6.22-3.61-3.46-5.49-8.06-5.04-12.32.1-.89.33-1.49.66-1.7.27-.17.82-.19,1.22-.21,8.7-.34,17.32.85,25.6,3.55,1.05.34,2.65.86,4.13.14.45-.22.75-.66.78-1.16.03-.5-.21-.97-.62-1.25-8-5.23-17.77-5.81-27.22-6.37l-.7-.04c-2.72-.16-5.31-.43-7.01-1.93-.89-.79-1.6-1.99-2.11-3.57-1.12-3.52-.78-7.44.9-10.48.2-.37.45-.77.75-.97.53-.36,1.46-.28,2.46-.16,10.54,1.31,21.28,1.8,31.9,1.46.58-.02,1.09-.4,1.27-.96.18-.56,0-1.16-.47-1.52-2.15-1.66-4.89-1.92-7.09-2.13l-23.18-2.18c-2.38-.22-5.07-.48-7.05-1.84-1.84-1.27-3.13-3.62-3.53-6.45-.54-3.78-.16-7.46,1.02-9.87,1.15-2.34,3.45-4.01,5.7-5.52.72-.48,1.34-.59,2.29-.4,8.06,1.59,16.32,2.67,24.55,3.2.42.03.83-.14,1.12-.45.28-.31.41-.74.34-1.16-.03-.2-.05-.41-.04-.62.02-.67-.45-1.26-1.11-1.39-.52-.1-1.01-.23-1.49-.4-1.53-.52-3.12-.74-4.65-.95-.63-.09-1.25-.17-1.87-.28-1.69-.29-3.42-.54-5.08-.78-4.38-.63-8.91-1.28-13.13-2.81-1.55-.57-2.23-1.38-2.34-2.81,0-.08-.02-.16-.04-.23-.88-3.5.74-6.51,4.13-7.65,1.79-.6,3.72-.75,5.53-.85,9.65-.53,19.33-.5,28.99-.3,2.64.05,5.28.16,7.92.09,2.64-.07,5.35.19,7.95-.38.98-.21,2.63-.74,2.61-1.99l-.22-14.74c-.1-6.78,1.62-13.5,5-19.4.01-.03.03-.05.04-.08,2.43-4.97,7.34-7.72,12.79-7.16,2.17.22,3.7.9,4.57,2.03.85,1.11,1.12,2.74.79,4.84-.46,2.89-1.27,5.78-2.05,8.58-3.52,12.57-2.36,25.18.16,37.85,2.42,12.22,6.98,23.94,14.15,34.18,7.82,11.17,18.21,20.51,30.07,27.22,3.29,1.86,6.69,3.44,10.15,4.96,1.31.58,2.46.25,2.92-1.23,1.64-5.21-6.27-7.26-9.53-8.94-4.12-2.12-8.2-4.35-12.09-6.87-14.29-9.27-22.83-22.85-27.61-39.04-3.81-12.9-6.79-28.65-3.68-41.96l.02-.07c.81-3.42,1.65-6.95,2.84-10.28,2.27-6.34.52-10.37-1.35-12.64-2.91-3.54-8.11-5.22-13.58-4.4-6.16.93-10.88,4.53-14.43,11-4.24,7.74-5.8,16.19-5.54,24.95.04,1.36.1,2.71.17,4.07.03.59.57,3.61.05,3.9-.13.08-.3.07-.45.06-8.48-.44-16.97-.84-25.46-1.16-6.26-.23-12.38-.01-18.21.64-8.3.93-12.78,6.05-12.6,14.4.06,2.66.56,4.06,2.53,6.25-8.11,6.76-10.1,16.62-5.02,25.5l.04.08c.1.23.28.63.68.92,2.07,1.53,1.62,3.56.72,6.76-.19.68-.39,1.38-.54,2.08-1.31,5.96.76,12.46,5.26,16.57l.14.12c.33.3.67.61.76.86.12.33-.07.93-.25,1.5l-.1.32c-1.34,4.46-.22,9.73,2.98,14.09,2.42,3.29,5.92,6.11,11.01,8.87,5.75,3.11,11.38,4.99,16.75,5.58,4.01.44,8.1.05,12.05-.34,2.1-.2,4.28-.42,6.37-.49,6.69-.24,12.51.07,17.79.94,9.01,1.49,17.65,4.82,24.91,7.88,7.05,2.97,15.02,6.67,20.43,12.91l.15.18c.62.72,1.32,1.53,2.35,2.03.5.24,1.09.38,1.68.38.98,0,1.96-.37,2.59-1.26,1.03-1.46.54-3.43-1.3-5.27-7.18-7.16-16.29-12.91-27.09-17.09Z"/>
    </g>
  </g>
</svg>