<svg width="40" height="40" viewBox="0 0 40 40" fill="none" xmlns="http://www.w3.org/2000/svg">
<g clip-path="url(#clip0_350_11353)">
<path d="M26.9014 12.4585C26.4866 12.4585 26.1499 12.7943 26.1499 13.2097C26.1499 13.6247 26.4866 13.9611 26.9014 13.9611C27.317 13.9611 27.6528 13.6247 27.6528 13.2097C27.6528 12.7943 27.317 12.4585 26.9014 12.4585Z" fill="#282A35"/>
<path d="M26.9014 12.4585C26.4866 12.4585 26.1499 12.7943 26.1499 13.2097C26.1499 13.6247 26.4866 13.9611 26.9014 13.9611C27.317 13.9611 27.6528 13.6247 27.6528 13.2097C27.6528 12.7943 27.317 12.4585 26.9014 12.4585Z" fill="black" fill-opacity="0.2"/>
<path d="M13.2485 26.1123C12.8329 26.1123 12.4971 26.449 12.4971 26.8638C12.4971 27.2794 12.8329 27.6152 13.2485 27.6152C13.6633 27.6152 14 27.2794 14 26.8638C14 26.449 13.6633 26.1123 13.2485 26.1123Z" fill="#282A35"/>
<path d="M13.2485 26.1123C12.8329 26.1123 12.4971 26.449 12.4971 26.8638C12.4971 27.2794 12.8329 27.6152 13.2485 27.6152C13.6633 27.6152 14 27.2794 14 26.8638C14 26.449 13.6633 26.1123 13.2485 26.1123Z" fill="black" fill-opacity="0.2"/>
<path d="M38.3779 5.42287C38.1242 5.36387 37.8577 5.44048 37.6745 5.62541L34.5592 8.76543H33.0656L31.4215 7.06201V5.54763L34.4922 2.43109C34.674 2.24674 34.7479 1.98168 34.6877 1.72952C34.6279 1.47766 34.4423 1.27453 34.1969 1.19175C33.4255 0.931676 32.6183 0.799876 31.7972 0.799876C29.3497 0.799876 27.1261 1.94117 25.6966 3.93109C24.3586 5.79391 23.9462 8.07678 24.5371 10.2616L19.0017 15.7969L9.77982 6.55389V4.7398C9.77982 4.4759 9.64127 4.23109 9.41495 4.09547L4.10154 0.907019C3.80565 0.729426 3.42727 0.776099 3.18363 1.02003L1.05839 3.14498C0.81475 3.38892 0.768077 3.76729 0.945376 4.06318L4.13324 9.37659C4.26886 9.60291 4.51338 9.74117 4.77727 9.74146L6.59078 9.74205L15.8136 18.9851L10.2994 24.4993C8.11455 23.9087 5.8305 24.3217 3.9668 25.6605C1.97806 27.0892 0.837646 29.3122 0.837646 31.7598C0.837646 32.5805 0.969447 33.388 1.22953 34.1592C1.3126 34.406 1.51778 34.5924 1.7714 34.6511C2.02532 34.7101 2.29156 34.6335 2.47502 34.4486L5.59009 31.3089H7.09185L8.80291 33.0199V34.5217L5.66318 37.6368C5.47825 37.8202 5.40164 38.0865 5.46064 38.3404C5.51935 38.594 5.70575 38.7992 5.95262 38.8823C6.72375 39.1423 7.53129 39.2741 8.35203 39.2741C10.7996 39.2741 13.0223 38.1334 14.4512 36.1447C15.7901 34.281 16.2031 31.9972 15.6125 29.8124L20.0412 25.3837L21.0557 26.4857L20.5901 26.951C20.2966 27.2445 20.2966 27.7203 20.5901 28.0139C20.8836 28.3071 21.3592 28.3071 21.653 28.0139L22.0745 27.5923L31.5929 37.9315C31.6 37.9391 31.6073 37.9464 31.6147 37.9538C33.3759 39.715 36.2294 39.7156 37.9916 37.9535C39.7487 36.1955 39.7487 33.3349 37.9916 31.5769C37.9839 31.5692 37.976 31.5619 37.9681 31.5546L27.6128 22.0544L28.0296 21.6375C28.3232 21.3443 28.3232 20.8685 28.0296 20.5749C27.7361 20.2814 27.2605 20.2814 26.9667 20.5749L26.5044 21.0375L25.4004 20.0242L29.8505 15.5741C30.483 15.7432 31.1359 15.8289 31.7972 15.8289C35.9409 15.8289 39.3116 12.4579 39.3116 8.31455C39.3116 7.49352 39.1798 6.68627 38.9197 5.91485C38.8367 5.66798 38.6315 5.48158 38.3779 5.42287ZM7.43442 8.45986C7.29352 8.31866 7.10242 8.24674 6.90281 8.24674L5.2032 8.24616L2.53608 3.79312L3.83148 2.49772L8.27688 5.16543V6.86504C8.27688 7.06406 8.35585 7.25487 8.49645 7.39577L17.9391 16.8599L16.8762 17.9225L7.43442 8.45986ZM26.549 23.1182L36.9395 32.6504C38.1002 33.8234 38.0966 35.7226 36.9286 36.8912C35.758 38.0618 33.8629 38.0653 32.6875 36.9014L23.138 26.5285L26.549 23.1182ZM25.4406 22.101L22.1192 25.4219L21.1047 24.3199L24.3366 21.0877L25.4406 22.101ZM31.7972 14.326C31.14 14.326 30.4936 14.2206 29.8766 14.0128C29.6062 13.9221 29.3074 13.9919 29.1055 14.1936C25.3381 17.9609 17.2205 26.0782 14.2314 29.0677C14.0294 29.2696 13.9593 29.5685 14.0506 29.8391C14.6752 31.694 14.3764 33.6725 13.2304 35.2679C12.0876 36.8586 10.3094 37.7712 8.35203 37.7712C8.13217 37.7712 7.91348 37.7592 7.69684 37.736L10.0836 35.3677C10.2257 35.2268 10.3058 35.0348 10.3058 34.8343V32.7085C10.3058 32.5092 10.2266 32.3181 10.0857 32.1772L7.93432 30.0258C7.79342 29.8849 7.60232 29.8056 7.40301 29.8056H5.27718C5.07669 29.8056 4.88471 29.8858 4.74352 30.0279L2.37551 32.4146C2.35203 32.198 2.34029 31.9793 2.34029 31.7595C2.34029 29.8018 3.25262 28.0238 4.84362 26.8811C6.43872 25.7351 8.41749 25.436 10.2727 26.0609C10.543 26.1522 10.8419 26.0821 11.0438 25.8801C11.0852 25.839 25.9073 11.0166 25.9179 11.006C26.1198 10.8041 26.1897 10.5056 26.0987 10.2349C25.4738 8.38001 25.772 6.40213 26.9171 4.8079C28.0607 3.21573 29.8393 2.30281 31.7969 2.30281C32.0236 2.30281 32.2487 2.31543 32.4718 2.34009L30.1346 4.7122C29.9961 4.85281 29.9186 5.04215 29.9186 5.23941V7.36524C29.9186 7.56015 29.994 7.74714 30.1293 7.88716L32.2056 10.0385C32.347 10.1853 32.5422 10.2681 32.7463 10.2681H34.8721C35.0723 10.2681 35.2643 10.1882 35.4055 10.0459L37.7735 7.65937C37.7969 7.876 37.8087 8.09469 37.8087 8.31455C37.8087 11.6292 35.1119 14.326 31.7972 14.326Z" fill="#282A35"/>
<path d="M38.3779 5.42287C38.1242 5.36387 37.8577 5.44048 37.6745 5.62541L34.5592 8.76543H33.0656L31.4215 7.06201V5.54763L34.4922 2.43109C34.674 2.24674 34.7479 1.98168 34.6877 1.72952C34.6279 1.47766 34.4423 1.27453 34.1969 1.19175C33.4255 0.931676 32.6183 0.799876 31.7972 0.799876C29.3497 0.799876 27.1261 1.94117 25.6966 3.93109C24.3586 5.79391 23.9462 8.07678 24.5371 10.2616L19.0017 15.7969L9.77982 6.55389V4.7398C9.77982 4.4759 9.64127 4.23109 9.41495 4.09547L4.10154 0.907019C3.80565 0.729426 3.42727 0.776099 3.18363 1.02003L1.05839 3.14498C0.81475 3.38892 0.768077 3.76729 0.945376 4.06318L4.13324 9.37659C4.26886 9.60291 4.51338 9.74117 4.77727 9.74146L6.59078 9.74205L15.8136 18.9851L10.2994 24.4993C8.11455 23.9087 5.8305 24.3217 3.9668 25.6605C1.97806 27.0892 0.837646 29.3122 0.837646 31.7598C0.837646 32.5805 0.969447 33.388 1.22953 34.1592C1.3126 34.406 1.51778 34.5924 1.7714 34.6511C2.02532 34.7101 2.29156 34.6335 2.47502 34.4486L5.59009 31.3089H7.09185L8.80291 33.0199V34.5217L5.66318 37.6368C5.47825 37.8202 5.40164 38.0865 5.46064 38.3404C5.51935 38.594 5.70575 38.7992 5.95262 38.8823C6.72375 39.1423 7.53129 39.2741 8.35203 39.2741C10.7996 39.2741 13.0223 38.1334 14.4512 36.1447C15.7901 34.281 16.2031 31.9972 15.6125 29.8124L20.0412 25.3837L21.0557 26.4857L20.5901 26.951C20.2966 27.2445 20.2966 27.7203 20.5901 28.0139C20.8836 28.3071 21.3592 28.3071 21.653 28.0139L22.0745 27.5923L31.5929 37.9315C31.6 37.9391 31.6073 37.9464 31.6147 37.9538C33.3759 39.715 36.2294 39.7156 37.9916 37.9535C39.7487 36.1955 39.7487 33.3349 37.9916 31.5769C37.9839 31.5692 37.976 31.5619 37.9681 31.5546L27.6128 22.0544L28.0296 21.6375C28.3232 21.3443 28.3232 20.8685 28.0296 20.5749C27.7361 20.2814 27.2605 20.2814 26.9667 20.5749L26.5044 21.0375L25.4004 20.0242L29.8505 15.5741C30.483 15.7432 31.1359 15.8289 31.7972 15.8289C35.9409 15.8289 39.3116 12.4579 39.3116 8.31455C39.3116 7.49352 39.1798 6.68627 38.9197 5.91485C38.8367 5.66798 38.6315 5.48158 38.3779 5.42287ZM7.43442 8.45986C7.29352 8.31866 7.10242 8.24674 6.90281 8.24674L5.2032 8.24616L2.53608 3.79312L3.83148 2.49772L8.27688 5.16543V6.86504C8.27688 7.06406 8.35585 7.25487 8.49645 7.39577L17.9391 16.8599L16.8762 17.9225L7.43442 8.45986ZM26.549 23.1182L36.9395 32.6504C38.1002 33.8234 38.0966 35.7226 36.9286 36.8912C35.758 38.0618 33.8629 38.0653 32.6875 36.9014L23.138 26.5285L26.549 23.1182ZM25.4406 22.101L22.1192 25.4219L21.1047 24.3199L24.3366 21.0877L25.4406 22.101ZM31.7972 14.326C31.14 14.326 30.4936 14.2206 29.8766 14.0128C29.6062 13.9221 29.3074 13.9919 29.1055 14.1936C25.3381 17.9609 17.2205 26.0782 14.2314 29.0677C14.0294 29.2696 13.9593 29.5685 14.0506 29.8391C14.6752 31.694 14.3764 33.6725 13.2304 35.2679C12.0876 36.8586 10.3094 37.7712 8.35203 37.7712C8.13217 37.7712 7.91348 37.7592 7.69684 37.736L10.0836 35.3677C10.2257 35.2268 10.3058 35.0348 10.3058 34.8343V32.7085C10.3058 32.5092 10.2266 32.3181 10.0857 32.1772L7.93432 30.0258C7.79342 29.8849 7.60232 29.8056 7.40301 29.8056H5.27718C5.07669 29.8056 4.88471 29.8858 4.74352 30.0279L2.37551 32.4146C2.35203 32.198 2.34029 31.9793 2.34029 31.7595C2.34029 29.8018 3.25262 28.0238 4.84362 26.8811C6.43872 25.7351 8.41749 25.436 10.2727 26.0609C10.543 26.1522 10.8419 26.0821 11.0438 25.8801C11.0852 25.839 25.9073 11.0166 25.9179 11.006C26.1198 10.8041 26.1897 10.5056 26.0987 10.2349C25.4738 8.38001 25.772 6.40213 26.9171 4.8079C28.0607 3.21573 29.8393 2.30281 31.7969 2.30281C32.0236 2.30281 32.2487 2.31543 32.4718 2.34009L30.1346 4.7122C29.9961 4.85281 29.9186 5.04215 29.9186 5.23941V7.36524C29.9186 7.56015 29.994 7.74714 30.1293 7.88716L32.2056 10.0385C32.347 10.1853 32.5422 10.2681 32.7463 10.2681H34.8721C35.0723 10.2681 35.2643 10.1882 35.4055 10.0459L37.7735 7.65937C37.7969 7.876 37.8087 8.09469 37.8087 8.31455C37.8087 11.6292 35.1119 14.326 31.7972 14.326Z" fill="black" fill-opacity="0.2"/>
<path d="M24.2456 14.8037L14.842 24.2073C14.5488 24.5005 14.5488 24.9764 14.842 25.2699C15.1355 25.5634 15.6114 25.5634 15.9049 25.2699L25.3085 15.8663C25.6021 15.573 25.6021 15.0972 25.3085 14.8037C25.015 14.5101 24.5392 14.5101 24.2456 14.8037Z" fill="#282A35"/>
<path d="M24.2456 14.8037L14.842 24.2073C14.5488 24.5005 14.5488 24.9764 14.842 25.2699C15.1355 25.5634 15.6114 25.5634 15.9049 25.2699L25.3085 15.8663C25.6021 15.573 25.6021 15.0972 25.3085 14.8037C25.015 14.5101 24.5392 14.5101 24.2456 14.8037Z" fill="black" fill-opacity="0.2"/>
<path d="M33.7414 34.7658C34.035 35.0584 34.5108 35.0584 34.8044 34.764C35.0973 34.4702 35.0964 33.9944 34.8026 33.7014L28.0291 26.9496C27.7353 26.6567 27.2592 26.6576 26.9665 26.9514C26.6732 27.2455 26.6741 27.7211 26.968 28.014L33.7414 34.7658Z" fill="#282A35"/>
<path d="M33.7414 34.7658C34.035 35.0584 34.5108 35.0584 34.8044 34.764C35.0973 34.4702 35.0964 33.9944 34.8026 33.7014L28.0291 26.9496C27.7353 26.6567 27.2592 26.6576 26.9665 26.9514C26.6732 27.2455 26.6741 27.7211 26.968 28.014L33.7414 34.7658Z" fill="black" fill-opacity="0.2"/>
</g>
<defs>
<clipPath id="clip0_350_11353">
<rect width="38.4" height="38.4751" fill="white" transform="translate(0.800049 0.799805)"/>
</clipPath>
</defs>
</svg>
